# xmcd
#
# Track frame offsets:
#	150
#	19717
#	37650
#	60020
#	76212
#	92567
#	107410
#	121770
#	138845
#	153542
#
# Disc length: 2241 seconds
# Revision: 4
# Processed by: cddbd v1.5.2PL0 Copyright (c) Steve Scherf et al.
# Submitted via: dBpowerAMP V12.0
#
DISCID=5f08bf0a
DTITLE=Reba McEntire - Greatest Hits, Vol. 2
DYEAR=1993
DGENRE=Country
TTITLE0=Does He Love You
TTITLE1=You Lie
TTITLE2=Fancy
TTITLE3=For My Broken Heart
TTITLE4=Love Will Find Its Way to You
TTITLE5=They Asked About You
TTITLE6=Is There Life Out There
TTITLE7=Rumor Has It
TTITLE8=Walk On
TTITLE9=The Greatest Man I Never Knew
EXTD=
EXTT0=
EXTT1=
EXTT2=
EXTT3=
EXTT4=
EXTT5=
EXTT6=
EXTT7=
EXTT8=
EXTT9=
PLAYORDER=
